<svg xmlns="http://www.w3.org/2000/svg" viewBox="-1296.469 213.072 62.921 14.643"><defs><style>.cls-1{fill:#d34f1f;stroke:rgba(0,0,0,0);stroke-width:1px}</style></defs><path id="SPARK" class="cls-1" d="M6.045-7.441a12.365 12.365 0 0 1 2.681 1.967 2.963 2.963 0 0 1 .845 2.1 3.144 3.144 0 0 1-1.255 2.6 5.28 5.28 0 0 1-3.355.989A11.758 11.758 0 0 1 2.817.034 7.215 7.215 0 0 1 1.27-.4l-.206-2.53 1.143-.244.8 1.895a5.629 5.629 0 0 0 .806.171 7.127 7.127 0 0 0 1 .063 9.426 9.426 0 0 0 1.382-.1 8.179 8.179 0 0 0 1.226-.273 4.9 4.9 0 0 0 .2-.649 4.149 4.149 0 0 0 .1-.962 2.011 2.011 0 0 0-.576-1.284 11.381 11.381 0 0 0-2.49-1.821A10.84 10.84 0 0 1 1.616-8.4a3.017 3.017 0 0 1-.552-1.748A2.836 2.836 0 0 1 2.29-12.5a5.491 5.491 0 0 1 3.384-.928 11.69 11.69 0 0 1 1.646.117 8.231 8.231 0 0 1 1.6.391l.205 2.637-1.025.215-.8-1.885a6.228 6.228 0 0 0-.815-.161 6.732 6.732 0 0 0-.864-.054 8.688 8.688 0 0 0-1.406.107 6.73 6.73 0 0 0-1.1.264 4.435 4.435 0 0 0-.137.62 4.663 4.663 0 0 0-.049.688A1.773 1.773 0 0 0 3.5-9.214a15.713 15.713 0 0 0 2.545 1.773zm8.082-4.482l-1.494-.332.2-.957h4.893a5.685 5.685 0 0 1 3.315.815 2.918 2.918 0 0 1 1.147 2.554 3.685 3.685 0 0 1-1.211 2.9 4.383 4.383 0 0 1-3.027 1.079h-1.968v4.58l2.07.332-.2.957h-5.024l-.2-.957 1.494-.332zm1.855-.029v4.824h1.563a8.532 8.532 0 0 0 1.309-.093 6.549 6.549 0 0 0 1.132-.279 6.468 6.468 0 0 0 .229-1 6.581 6.581 0 0 0 .073-.957 2.3 2.3 0 0 0-.771-1.826 3.351 3.351 0 0 0-2.266-.674zm7.33 11l1.055-.283 4.3-11.973h1.455L34.309-1.24l1.055.283-.2.957h-3.76l-.2-.957 1.25-.283-.918-2.725H26.75l-.937 2.725 1.25.283-.2.957h-3.355zm3.877-4.268h3.926l-1.895-5.557h-.1zm11.793-6.7l-1.494-.332.2-.957h4.8a5.021 5.021 0 0 1 3.105.825 2.982 2.982 0 0 1 1.074 2.524 4.129 4.129 0 0 1-.581 2.212A3.624 3.624 0 0 1 44.5-6.24l-.059.186 2.705 4.766 1.426.332-.2.957h-2.427l-3.32-5.869h-1.787v4.58l1.484.332-.2.957h-4.438l-.2-.957 1.494-.332zm1.855-.029v4.824h1.2a8.725 8.725 0 0 0 1.226-.088 6.778 6.778 0 0 0 1.227-.297q.107-.439.2-.957a5.951 5.951 0 0 0 .088-1 2.318 2.318 0 0 0-.747-1.826 3.221 3.221 0 0 0-2.2-.664zm9.918 11l1.494-.332v-10.643l-1.494-.332.2-.957h4.443l.2.957-1.484.332v5.439l.137.059 5.313-5.615-1.074-.205.2-.967h3.535l.2.957-1.191.332-4.248 4.444 4.453 6.18 1.426.342L62.67 0h-2.383L55.8-6.24l-1.7 1.787v3.164l1.484.332-.2.957h-4.433z" transform="translate(-1297 227)"/></svg>